# xmcd
#
# Track frame offsets:
#	214
#	14843
#	26621
#	36130
#	51700
#	64151
#	74884
#	90929
#	107454
#	126401
#	137252
#
# Disc length: 2066 seconds
#
# Revision: 0
# Processed by: cddbd v1.5.2PL0 Copyright (c) Steve Scherf et al.
# Submitted via: EasyCDDAExtractor 11.5.3.1
#
DISCID=9f08100b
DTITLE=Wayne Graham - Mexico
DYEAR=2016
DGENRE=Americana
TTITLE0=Borrowed Bed
TTITLE1=Mexico
TTITLE2=Real Speed Limit
TTITLE3=Cliffs of Dover
TTITLE4=Broken China
TTITLE5=Paint
TTITLE6=Monastery Stone
TTITLE7=Wooden Frames
TTITLE8=There's a Star
TTITLE9=New Favorite Song
TTITLE10=Fellow Man
EXTD=
EXTT0=
EXTT1=
EXTT2=
EXTT3=
EXTT4=
EXTT5=
EXTT6=
EXTT7=
EXTT8=
EXTT9=
EXTT10=
PLAYORDER=
